<?xml version="1.0" standalone="no"?>
<!DOCTYPE svg PUBLIC "-//W3C//DTD SVG 20010904//EN"
 "http://www.w3.org/TR/2001/REC-SVG-20010904/DTD/svg10.dtd">
<svg version="1.0" xmlns="http://www.w3.org/2000/svg"
 width="801.000000pt" height="598.000000pt" viewBox="0 0 801.000000 598.000000"
 preserveAspectRatio="xMidYMid meet">

<g transform="translate(0.000000,598.000000) scale(0.100000,-0.100000)"
fill="#000000" stroke="none">
<path d="M0 5520 l0 -460 33 0 c19 0 95 29 187 72 175 81 191 84 365 53 180
-32 520 -57 780 -57 268 0 309 5 580 63 274 59 361 80 969 229 159 39 294 69
299 67 6 -2 -19 -13 -54 -26 -35 -13 -125 -47 -199 -76 -74 -29 -160 -62 -190
-74 -51 -20 -52 -20 -15 -15 50 8 383 91 535 134 63 18 129 36 145 40 54 15
209 60 270 79 33 10 94 28 135 41 309 91 363 115 160 72 -250 -53 -299 -64
-350 -77 -60 -15 -174 -42 -318 -75 -52 -12 -96 -19 -99 -16 -3 3 0 8 8 10 15
6 284 104 309 113 19 7 318 111 420 146 129 44 460 145 585 177 66 18 122 34
124 36 2 2 -117 4 -266 4 -259 0 -278 -1 -420 -29 -722 -142 -913 -174 -1213
-206 -80 -8 -194 -21 -255 -27 -143 -16 -809 -16 -925 0 -47 6 -134 17 -195
23 -121 12 -422 61 -525 85 -176 42 -306 76 -420 111 -120 36 -132 38 -292 41
l-168 3 0 -461z"/>
<path d="M935 5969 c65 -19 387 -88 505 -108 145 -24 425 -57 555 -65 285 -18
331 -18 448 3 307 55 776 110 1127 132 135 8 210 17 245 30 48 17 1 18 -1430
17 -898 0 -1468 -3 -1450 -9z"/>
<path d="M5695 5915 c-5 -2 -54 -7 -108 -10 -54 -4 -96 -9 -94 -11 2 -3 58
-11 123 -19 149 -18 373 -51 482 -71 46 -9 86 -14 88 -11 4 3 -178 61 -342
107 -65 18 -123 24 -149 15z"/>
<path d="M4168 5693 c7 -3 16 -2 19 1 4 3 -2 6 -13 5 -11 0 -14 -3 -6 -6z"/>
<path d="M5520 5107 c0 -8 -17 -26 -38 -40 -32 -21 -39 -31 -39 -59 0 -18 2
-27 5 -20 2 6 9 12 16 12 6 0 19 9 29 20 9 11 25 20 34 19 11 0 13 -3 6 -6 -7
-2 -13 -20 -13 -38 0 -19 -4 -36 -10 -40 -5 -3 -8 -11 -6 -18 1 -7 1 -9 -1 -4
-3 4 -11 7 -19 7 -17 0 -19 17 -1 23 7 3 5 6 -5 6 -10 1 -18 -3 -18 -9 0 -5
-9 -10 -19 -10 -11 0 -32 -13 -48 -30 -15 -16 -34 -30 -41 -30 -17 0 -79 -65
-88 -92 -13 -42 52 -60 82 -22 6 8 19 14 28 14 10 0 27 5 39 11 18 9 20 9 10
-2 -17 -17 -16 -29 1 -29 8 0 18 9 21 20 4 14 15 20 34 20 15 0 32 5 37 10 8
8 15 6 24 -5 7 -8 21 -15 32 -15 11 0 29 -5 40 -11 16 -8 22 -8 29 2 5 9 11
10 21 2 20 -16 81 12 101 47 17 28 17 30 -2 49 -22 22 -102 61 -124 61 -8 0
-18 7 -21 15 -3 9 -11 15 -18 14 -25 -3 -58 13 -58 28 0 10 6 13 16 9 12 -5
14 -1 9 15 -4 11 -1 26 5 34 6 8 9 19 5 25 -5 7 -12 5 -21 -7 -13 -17 -13 -17
-14 4 0 12 -4 25 -10 28 -5 3 -10 0 -10 -8z m-123 -264 c6 -16 -33 -26 -54
-14 -16 9 -16 11 7 20 29 11 42 9 47 -6z"/>
<path d="M5870 4917 c0 -20 23 -37 37 -29 7 5 2 13 -13 25 -19 14 -24 15 -24
4z"/>
<path d="M6181 4830 c-13 -11 -32 -20 -42 -20 -10 0 -19 -2 -19 -5 0 -3 23
-38 51 -78 50 -72 50 -72 25 -75 -14 -2 -34 2 -45 7 -11 6 -42 11 -70 11 -30
0 -51 5 -54 13 -4 10 -6 10 -6 0 -2 -21 -21 -14 -21 7 0 11 -6 20 -14 20 -7 0
-25 9 -39 20 -14 11 -32 20 -40 20 -8 0 -17 7 -21 15 -3 8 -12 15 -20 15 -18
0 -88 -38 -97 -52 -4 -6 -21 -11 -38 -13 -17 -1 -34 -5 -38 -9 -3 -3 -14 -6
-23 -6 -8 0 -24 -14 -34 -31 -16 -27 -22 -30 -59 -27 -30 2 -47 -2 -59 -14
-19 -19 -38 -24 -38 -9 0 5 10 12 23 14 12 2 1 4 -24 3 -38 0 -44 -3 -32 -12
13 -9 11 -12 -16 -17 -30 -6 -98 5 -149 24 -70 27 -133 -12 -152 -93 -7 -29
-17 -61 -22 -72 -14 -26 0 -163 18 -180 16 -17 -6 -26 -161 -71 -175 -51 -335
-124 -349 -161 -4 -11 5 -20 32 -31 30 -13 63 -15 177 -10 77 3 161 11 188 18
59 16 61 15 117 -116 49 -114 48 -114 59 -97 4 7 14 12 21 10 19 -4 14 72 -10
142 -12 36 -15 58 -9 65 6 6 13 5 19 -5 9 -13 11 -13 20 0 8 13 10 12 10 -2 0
-22 18 -24 26 -3 5 12 10 13 20 4 10 -8 14 -8 14 -1 0 7 7 9 17 5 11 -4 14 -3
9 5 -4 7 -14 12 -22 12 -8 0 -14 5 -14 10 0 17 35 11 52 -9 15 -17 14 -20 -5
-40 l-21 -21 31 0 c17 0 34 6 36 13 4 9 8 9 14 0 4 -6 31 -11 58 -10 56 1 76
-3 88 -18 12 -17 39 27 34 58 -6 42 31 67 99 67 40 0 54 -4 54 -14 0 -8 6 -17
13 -19 7 -3 5 -6 -5 -6 -22 -1 -23 -15 -2 -35 15 -16 28 -20 52 -17 6 1 12 -5
12 -14 0 -16 15 -20 24 -6 3 5 20 11 38 15 105 18 158 31 158 38 0 4 -12 8
-27 8 -16 1 -57 9 -93 20 -53 15 -60 19 -35 21 53 5 89 -1 107 -18 18 -16 48
-12 48 7 0 5 7 10 15 10 8 0 15 8 15 18 0 15 2 15 11 2 8 -12 9 -10 4 7 -3 12
-1 31 4 42 9 15 17 18 38 12 40 -10 98 1 99 19 2 31 4 33 17 18 6 -8 22 -18
35 -21 19 -4 25 2 43 43 20 47 21 48 92 65 95 23 260 77 319 104 51 25 83 55
74 70 -16 25 -183 24 -508 -4 -37 -4 -58 -2 -58 5 0 6 7 13 15 16 8 4 15 12
15 20 0 8 9 14 20 14 11 0 20 5 20 10 0 9 -14 14 -32 12 -3 -1 -12 6 -19 14
-11 14 -8 21 24 51 21 18 42 31 47 28 20 -12 23 49 5 104 -9 31 -19 62 -21 69
-4 14 -24 16 -24 2 0 -18 -17 -10 -30 15 -16 30 -27 31 -59 5z m-267 -216 c9
-3 16 -12 16 -20 0 -8 5 -14 10 -14 18 0 -10 -42 -32 -48 -18 -4 -17 -6 7 -22
27 -17 27 -18 6 -25 -28 -9 -19 -21 21 -30 l33 -7 -30 -13 c-34 -14 -175 -28
-175 -16 0 4 12 12 28 18 19 8 22 11 9 12 -10 1 -29 -10 -42 -23 -30 -30 -124
-53 -137 -34 -6 11 -10 11 -16 0 -10 -15 -66 -32 -107 -32 l-30 0 32 23 c39
26 37 39 -5 51 -18 5 -32 15 -32 22 0 7 6 11 14 8 8 -3 17 -1 21 5 3 6 26 11
49 11 33 0 49 -6 69 -26 23 -23 32 -25 64 -19 21 4 57 15 80 26 23 10 51 19
62 19 11 0 22 4 26 10 8 13 -31 50 -54 50 -30 0 -43 23 -26 48 11 14 29 22 58
25 23 2 47 4 54 5 6 1 18 -1 27 -4z m-377 -39 c-7 -16 -42 -21 -51 -6 -4 5 6
14 21 19 32 11 38 9 30 -13z"/>
<path d="M5561 4447 c-17 -17 -14 -40 5 -33 9 3 20 6 25 6 14 0 11 27 -5 33
-7 3 -19 0 -25 -6z"/>
<path d="M6276 4593 c-6 -14 -5 -15 5 -6 7 7 10 15 7 18 -3 3 -9 -2 -12 -12z"/>
<path d="M962 4415 c-62 -27 -61 -146 1 -287 l25 -57 -31 20 c-79 48 -118 10
-97 -95 11 -55 10 -59 -9 -73 -32 -22 -28 -88 8 -156 26 -49 28 -57 14 -69
-38 -31 9 -134 89 -196 72 -55 95 -37 29 24 -21 20 -56 51 -76 70 -28 26 -36
40 -33 61 2 21 9 29 26 31 19 3 23 8 18 25 -3 12 -6 27 -6 34 0 6 -16 30 -35
53 -38 46 -46 89 -19 111 12 10 20 10 35 1 17 -11 19 -9 19 22 0 19 -5 38 -10
41 -20 12 -42 67 -36 91 15 60 95 10 167 -104 23 -37 84 -111 136 -164 51 -54
93 -103 93 -110 0 -6 2 -9 5 -6 3 2 -2 27 -10 54 -12 40 -31 65 -101 134 -47
47 -101 108 -120 137 -76 117 -109 299 -63 357 37 47 81 30 113 -44 8 -19 15
-28 16 -19 0 8 -13 36 -29 61 -35 55 -73 72 -119 53z"/>
<path d="M1145 4190 c8 -62 45 -138 91 -184 22 -21 100 -85 174 -141 74 -57
149 -121 167 -142 17 -22 61 -100 98 -174 37 -74 79 -147 94 -162 62 -68 129
-75 211 -23 30 19 74 47 98 61 90 57 177 40 207 -39 27 -73 25 -89 -15 -97
-47 -10 -80 -50 -80 -98 0 -43 -15 -60 -75 -87 l-40 -17 54 -10 c38 -7 59 -7
71 1 14 9 21 8 30 -3 19 -23 5 -42 -38 -49 -30 -4 -48 -16 -72 -44 -28 -34
-29 -37 -11 -40 11 -2 39 6 62 17 23 12 45 18 48 15 8 -7 -47 -109 -70 -129
-15 -14 -24 -16 -46 -7 -28 10 -203 24 -203 15 0 -2 25 -16 56 -30 41 -19 66
-24 95 -20 21 3 39 2 39 -2 0 -15 -99 -61 -131 -61 -19 0 -55 11 -81 25 -26
14 -72 27 -105 30 -32 4 -69 8 -83 11 -25 4 -25 4 5 -21 34 -29 124 -65 160
-65 76 0 -49 -52 -129 -54 -35 -1 -42 3 -67 39 -27 39 -29 40 -101 46 -40 3
-75 5 -77 3 -7 -6 89 -61 130 -73 24 -7 51 -15 59 -18 32 -9 -23 -25 -104 -30
l-81 -6 -17 36 c-12 25 -26 38 -45 43 -55 12 -64 16 -108 50 -49 37 -52 37
-31 -5 19 -36 81 -90 118 -103 50 -18 17 -26 -79 -21 l-93 6 -5 36 c-9 62 -20
84 -71 148 l-49 62 -3 -32 c-9 -84 13 -133 83 -184 48 -35 21 -38 -62 -8 -68
25 -74 30 -55 38 12 6 22 14 22 18 0 13 -18 20 -25 9 -8 -13 -42 -13 -50 1 -4
5 0 18 9 28 32 35 47 101 40 178 l-7 74 -23 -22 c-35 -33 -47 -82 -40 -161 7
-75 -5 -90 -24 -32 -18 54 -8 161 20 207 12 20 19 37 16 37 -3 0 -17 -20 -31
-44 -30 -52 -41 -126 -27 -179 13 -45 3 -47 -44 -9 -21 17 -34 36 -34 51 0 16
-4 21 -15 17 -8 -3 -15 -2 -15 2 0 14 24 32 44 33 17 1 17 2 4 6 -9 2 -26 -1
-37 -7 -27 -14 -29 5 -3 33 13 16 14 19 2 15 -8 -2 -19 -14 -25 -26 -5 -12
-13 -22 -18 -22 -17 0 -18 32 -3 58 17 27 17 27 -1 3 -10 -13 -33 -39 -50 -59
-20 -21 -33 -45 -33 -61 1 -25 1 -25 15 7 9 21 21 32 35 32 24 0 26 -13 5 -30
-8 -7 -15 -22 -15 -34 0 -20 1 -19 13 4 7 14 19 25 27 25 10 0 14 -8 12 -25
-3 -23 -3 -24 10 -7 13 17 17 16 63 -20 l50 -38 -75 -6 c-77 -5 -135 -26 -165
-59 -13 -15 -4 -12 36 9 30 16 72 30 94 32 67 3 119 -1 135 -11 25 -17 -6 -28
-53 -19 -48 9 -109 -4 -128 -27 -7 -9 -24 -20 -37 -25 -59 -22 32 -48 105 -29
26 6 69 27 95 45 41 30 48 32 56 18 5 -9 7 -24 5 -34 -4 -13 0 -19 12 -19 13
0 16 6 11 25 l-6 25 52 -21 c29 -12 59 -23 65 -26 21 -8 4 -23 -27 -23 -44 0
-131 -36 -170 -70 -33 -28 -33 -30 -10 -26 14 3 48 8 75 11 58 8 77 17 123 56
32 29 35 29 157 29 69 0 125 -2 125 -5 0 -3 -16 -19 -35 -36 -32 -29 -105
-120 -105 -132 0 -3 22 3 50 15 57 23 124 78 151 122 18 29 24 32 106 42 49 6
90 9 93 7 9 -8 -41 -43 -69 -49 -81 -17 -116 -39 -140 -87 -13 -26 -21 -50
-19 -53 3 -2 37 12 76 31 53 27 88 54 135 106 57 63 70 71 129 88 36 11 75 22
87 26 36 11 24 -14 -41 -81 -33 -35 -58 -64 -54 -64 4 0 28 11 54 24 65 33
132 93 148 133 8 18 20 33 28 33 7 0 25 9 40 21 59 47 46 -12 -21 -90 l-35
-41 29 11 c57 21 103 80 118 149 8 39 41 90 57 90 7 0 9 -26 6 -76 -4 -66 -3
-74 10 -61 20 20 27 97 13 139 -10 30 -8 42 10 84 23 54 30 50 46 -31 l7 -40
3 45 c6 88 2 85 95 85 107 0 145 19 352 174 85 64 180 131 210 150 84 50 181
82 266 88 64 4 80 1 108 -16 38 -25 44 -69 12 -101 -18 -18 -27 -20 -73 -13
-134 20 -277 -6 -388 -72 -32 -18 -105 -69 -163 -114 -59 -45 -111 -81 -117
-81 -5 0 -2 12 8 26 15 24 12 23 -43 -13 -33 -21 -83 -49 -112 -62 -29 -14
-52 -28 -52 -32 0 -15 69 -21 120 -10 87 19 142 48 281 151 158 117 228 154
327 175 86 18 138 19 180 4 35 -12 43 -25 31 -56 -15 -40 -48 -53 -102 -41
-56 12 -65 7 -48 -25 10 -18 28 -28 74 -38 51 -12 63 -18 65 -36 5 -37 -37
-56 -108 -48 -64 7 -68 4 -48 -40 9 -21 18 -25 53 -25 28 0 51 -7 66 -20 l24
-20 -24 -20 c-33 -28 -82 -26 -111 5 -13 14 -29 25 -37 25 -18 0 3 -47 35 -79
13 -13 21 -30 18 -38 -3 -8 -6 -16 -6 -19 0 -2 -13 -10 -30 -19 -52 -27 -155
-20 -261 19 -146 52 -278 80 -357 73 -82 -6 -166 -37 -212 -78 -25 -21 -26
-24 -6 -10 70 51 201 69 336 47 135 -22 258 -66 333 -118 38 -27 31 -30 -28
-13 -88 27 -261 13 -359 -30 -16 -7 -17 -6 -7 13 17 32 13 87 -8 113 -18 22
-20 22 -61 9 -26 -9 -65 -36 -98 -68 -95 -91 -164 -116 -396 -143 -143 -16
-113 -32 64 -32 164 -1 219 18 302 106 l57 60 36 -31 c19 -18 46 -32 58 -32
22 0 22 -1 -3 -20 -30 -23 -54 -26 -46 -5 8 23 0 19 -64 -32 l-60 -48 44 -8
c41 -8 54 -5 143 36 132 60 223 88 313 94 121 8 215 -36 100 -47 l-55 -6 40
-12 c67 -20 125 -14 125 14 0 7 -13 29 -30 47 -16 19 -30 37 -30 40 0 2 19 2
43 0 58 -7 124 12 143 42 13 20 14 31 5 56 -19 54 -16 59 39 59 37 0 55 5 70
20 26 26 25 40 -4 82 l-24 35 44 21 c29 14 46 30 50 46 8 32 1 42 -43 64 l-35
19 36 21 c45 26 48 61 9 92 l-26 20 21 21 c13 11 22 32 22 49 0 57 -63 92
-175 98 -68 4 -92 0 -160 -23 -108 -36 -163 -69 -351 -211 -181 -136 -252
-176 -328 -182 l-52 -4 -18 45 c-14 38 -15 52 -5 93 17 70 27 87 50 81 13 -4
19 0 19 12 0 10 12 23 26 30 15 6 24 14 21 18 -4 3 -18 -2 -33 -12 -32 -20
-39 -13 -49 51 -8 55 -48 99 -104 114 -55 15 -114 -3 -203 -60 -86 -56 -129
-68 -172 -47 -47 22 -73 60 -160 234 -88 175 -131 228 -269 329 -186 137 -223
176 -254 269 l-13 40 5 -45z m1150 -937 c-13 -31 -24 -67 -30 -96 -5 -24 -8
-26 -25 -17 -28 15 -27 78 0 108 26 27 66 31 55 5z m-45 -149 c0 -8 -4 -12
-10 -9 -5 3 -10 10 -10 16 0 5 5 9 10 9 6 0 10 -7 10 -16z m290 -370 c0 -8 -4
-14 -10 -14 -12 0 -31 35 -23 44 9 8 33 -14 33 -30z"/>
<path d="M6160 4140 c0 -5 7 -10 15 -10 8 0 15 5 15 10 0 6 -7 10 -15 10 -8 0
-15 -4 -15 -10z"/>
<path d="M6273 4126 c3 -8 3 -17 -1 -21 -4 -3 -7 -20 -8 -38 -1 -20 -10 -37
-27 -49 -24 -18 -26 -23 -22 -86 2 -37 9 -68 14 -70 6 -2 11 1 11 7 0 6 8 11
19 11 24 0 46 51 37 86 -5 19 -3 25 6 22 7 -3 15 -22 18 -43 5 -38 5 -38 24
-20 45 45 58 126 29 175 -17 29 -39 40 -82 40 -16 0 -21 -4 -18 -14z"/>
<path d="M5998 4003 c7 -3 16 -2 19 1 4 3 -2 6 -13 5 -11 0 -14 -3 -6 -6z"/>
<path d="M771 3814 c0 -11 3 -14 6 -6 3 7 2 16 -1 19 -3 4 -6 -2 -5 -13z"/>
<path d="M5797 3778 c7 -28 88 -110 129 -131 17 -9 36 -23 43 -31 15 -17 36
-22 26 -6 -3 5 -1 19 5 30 8 15 8 20 -1 20 -6 0 -20 11 -30 24 -11 14 -35 30
-54 36 -19 6 -38 17 -42 24 -8 12 -67 56 -76 56 -3 0 -3 -10 0 -22z"/>
<path d="M782 3725 c-2 -95 20 -193 64 -281 36 -73 118 -174 142 -174 25 0 -2
66 -50 119 -82 90 -134 209 -148 341 l-7 65 -1 -70z"/>
<path d="M6176 3763 c-8 -9 14 -33 30 -33 7 0 15 4 18 9 6 10 -39 32 -48 24z"/>
<path d="M5408 3712 c-52 -56 -72 -88 -59 -96 5 -4 26 18 47 46 21 29 41 55
44 58 18 17 31 40 23 40 -6 0 -31 -22 -55 -48z"/>
<path d="M5735 3725 c-17 -7 -41 -22 -54 -34 -30 -26 -67 -27 -106 -1 -35 23
-55 26 -55 7 0 -7 26 -26 58 -42 31 -17 60 -34 63 -39 4 -4 15 -1 25 8 11 9
41 36 68 60 51 46 51 63 1 41z"/>
<path d="M5604 3569 c-3 -5 -38 -9 -79 -9 -68 0 -85 -7 -85 -34 0 -6 361 3
370 9 6 3 10 14 10 23 0 15 -14 17 -105 18 -58 1 -108 -2 -111 -7z"/>
<path d="M5852 3573 c-17 -7 -5 -23 19 -23 10 0 19 7 19 15 0 15 -14 18 -38 8z"/>
<path d="M1345 3540 c-3 -5 -1 -10 4 -10 6 0 11 5 11 10 0 6 -2 10 -4 10 -3 0
-8 -4 -11 -10z"/>
<path d="M1275 3530 c-3 -5 -1 -10 4 -10 6 0 11 5 11 10 0 6 -2 10 -4 10 -3 0
-8 -4 -11 -10z"/>
<path d="M1378 3533 c7 -3 16 -2 19 1 4 3 -2 6 -13 5 -11 0 -14 -3 -6 -6z"/>
<path d="M1410 3530 c0 -5 5 -10 10 -10 6 0 10 5 10 10 0 6 -4 10 -10 10 -5 0
-10 -4 -10 -10z"/>
<path d="M1245 3520 c-3 -5 -1 -10 4 -10 6 0 11 5 11 10 0 6 -2 10 -4 10 -3 0
-8 -4 -11 -10z"/>
<path d="M1440 3520 c0 -5 5 -10 10 -10 6 0 10 5 10 10 0 6 -4 10 -10 10 -5 0
-10 -4 -10 -10z"/>
<path d="M1215 3500 c-3 -5 -1 -10 4 -10 6 0 11 5 11 10 0 6 -2 10 -4 10 -3 0
-8 -4 -11 -10z"/>
<path d="M1475 3500 c4 -6 11 -8 16 -5 14 9 11 15 -7 15 -8 0 -12 -5 -9 -10z"/>
<path d="M1185 3480 c-3 -5 -1 -10 4 -10 6 0 11 5 11 10 0 6 -2 10 -4 10 -3 0
-8 -4 -11 -10z"/>
<path d="M1505 3480 c3 -5 8 -10 11 -10 2 0 4 5 4 10 0 6 -5 10 -11 10 -5 0
-7 -4 -4 -10z"/>
<path d="M1321 3451 c-43 -40 -50 -80 -25 -146 4 -9 -7 -2 -24 15 -38 38 -73
39 -101 4 -27 -34 -27 -64 -1 -92 26 -27 36 -28 43 -2 8 31 37 37 58 12 21
-27 36 -28 42 -4 4 16 5 16 6 0 0 -10 8 -18 16 -18 11 0 15 18 18 78 l3 77 2
-77 c2 -71 4 -77 25 -81 12 -2 -3 -5 -33 -6 -103 -3 -100 -30 3 -32 29 -1 42
-4 30 -6 -13 -2 -24 -13 -26 -26 l-4 -22 -2 23 c-2 33 -25 27 -39 -10 -10 -28
-9 -35 10 -55 12 -13 27 -23 33 -23 20 0 57 41 50 57 -4 13 -3 14 9 4 19 -16
56 -5 56 15 0 8 -4 13 -9 10 -4 -3 -17 4 -27 16 -14 16 -16 22 -6 25 9 4 10 9
3 17 -8 9 -5 19 10 34 26 28 37 28 51 -3 14 -30 22 -31 48 -5 26 26 25 60 -1
94 -28 35 -63 34 -101 -4 -18 -19 -28 -24 -23 -13 17 43 16 88 -4 120 -33 52
-54 58 -90 24z m-111 -156 c0 -8 -4 -15 -10 -15 -5 0 -10 7 -10 15 0 8 5 15
10 15 6 0 10 -7 10 -15z m310 -5 c0 -5 -4 -10 -10 -10 -5 0 -10 5 -10 10 0 6
5 10 10 10 6 0 10 -4 10 -10z m-132 -97 c-15 -2 -42 -2 -60 0 -18 2 -6 4 27 4
33 0 48 -2 33 -4z"/>
<path d="M1530 3460 c0 -5 5 -10 11 -10 5 0 7 5 4 10 -3 6 -8 10 -11 10 -2 0
-4 -4 -4 -10z"/>
<path d="M1160 3449 c0 -5 5 -7 10 -4 6 3 10 8 10 11 0 2 -4 4 -10 4 -5 0 -10
-5 -10 -11z"/>
<path d="M1135 3430 c-3 -5 -1 -10 4 -10 6 0 11 5 11 10 0 6 -2 10 -4 10 -3 0
-8 -4 -11 -10z"/>
<path d="M1555 3430 c3 -5 8 -10 11 -10 2 0 4 5 4 10 0 6 -5 10 -11 10 -5 0
-7 -4 -4 -10z"/>
<path d="M1116 3393 c-3 -10 -9 -24 -12 -30 -3 -7 -1 -13 4 -13 5 0 13 12 16
26 8 30 2 44 -8 17z"/>
<path d="M1575 3400 c3 -5 8 -10 11 -10 2 0 4 5 4 10 0 6 -5 10 -11 10 -5 0
-7 -4 -4 -10z"/>
<path d="M2227 3403 c-12 -11 -8 -23 8 -23 8 0 15 7 15 15 0 16 -12 20 -23 8z"/>
<path d="M1590 3370 c0 -5 5 -10 11 -10 5 0 7 5 4 10 -3 6 -8 10 -11 10 -2 0
-4 -4 -4 -10z"/>
<path d="M5408 3352 c-10 -2 -18 -10 -18 -19 0 -17 35 -65 43 -57 5 6 47 -44
47 -57 0 -28 -64 25 -80 66 -5 14 -14 25 -20 25 -19 0 -10 -39 15 -66 14 -15
25 -30 25 -33 0 -14 245 -254 263 -257 6 -1 21 -5 31 -10 16 -6 18 -4 14 19
-3 15 -2 27 3 27 4 0 10 13 14 29 5 23 10 28 27 23 13 -3 26 1 34 13 8 11 21
16 33 12 21 -5 56 27 115 106 28 38 29 61 2 38 -9 -8 -16 -8 -20 -2 -4 6 3 15
14 21 12 6 20 17 17 23 -7 18 11 59 23 52 5 -3 10 -1 10 4 0 6 -4 11 -10 11
-5 0 -10 7 -10 15 0 20 -66 21 -73 0 -18 -46 -233 -82 -336 -55 -61 16 -107
37 -129 59 -9 9 -25 16 -34 13z m120 -173 c3 -12 2 -12 -6 0 -6 8 -15 10 -22
6 -9 -5 -11 -4 -6 4 10 15 28 10 34 -10z m366 -16 c4 -9 0 -23 -7 -31 -12 -11
-14 -9 -13 17 1 34 10 40 20 14z m-334 -35 c0 -5 -4 -8 -10 -8 -5 0 -10 10
-10 23 0 18 2 19 10 7 5 -8 10 -18 10 -22z m84 -82 c13 5 15 -5 7 -34 -2 -7
-71 63 -71 72 0 6 11 -1 25 -16 14 -17 30 -25 39 -22z m86 -20 c0 -3 -4 -8
-10 -11 -5 -3 -10 -1 -10 4 0 6 5 11 10 11 6 0 10 -2 10 -4z"/>
<path d="M1600 3341 c0 -5 5 -13 10 -16 6 -3 10 -2 10 4 0 5 -4 13 -10 16 -5
3 -10 2 -10 -4z"/>
<path d="M1090 3330 c0 -5 5 -10 10 -10 6 0 10 5 10 10 0 6 -4 10 -10 10 -5 0
-10 -4 -10 -10z"/>
<path d="M1091 3294 c0 -11 3 -14 6 -6 3 7 2 16 -1 19 -3 4 -6 -2 -5 -13z"/>
<path d="M1610 3266 c0 -9 5 -16 10 -16 6 0 10 4 10 9 0 6 -4 13 -10 16 -5 3
-10 -1 -10 -9z"/>
<path d="M1080 3260 c0 -5 5 -10 10 -10 6 0 10 5 10 10 0 6 -4 10 -10 10 -5 0
-10 -4 -10 -10z"/>
<path d="M1607 3216 c-4 -15 -6 -31 -2 -34 10 -10 16 6 13 35 l-3 28 -8 -29z"/>
<path d="M1090 3190 c0 -5 5 -10 10 -10 6 0 10 5 10 10 0 6 -4 10 -10 10 -5 0
-10 -4 -10 -10z"/>
<path d="M1280 3161 c0 -5 -9 -13 -21 -16 -16 -5 -18 -10 -8 -21 16 -20 36
-17 49 5 14 27 13 41 -5 41 -8 0 -15 -4 -15 -9z"/>
<path d="M1590 3160 c0 -5 5 -10 10 -10 6 0 10 5 10 10 0 6 -4 10 -10 10 -5 0
-10 -4 -10 -10z"/>
<path d="M6250 3139 c-125 -48 -146 -59 -130 -69 19 -12 4 -42 -50 -103 -47
-53 -166 -147 -185 -147 -7 0 -16 7 -19 16 -4 11 -10 13 -19 7 -8 -7 -24 -5
-47 4 -33 14 -34 16 -15 29 10 8 30 15 44 15 14 1 33 3 41 4 8 1 21 3 28 4 22
2 13 18 -17 31 -34 14 -90 1 -112 -26 -9 -12 -24 -14 -58 -9 -36 5 -56 1 -89
-15 -24 -12 -50 -19 -57 -16 -8 3 -19 -1 -25 -9 -9 -11 -17 -12 -38 -2 -59 25
-139 89 -161 128 -19 34 -26 39 -36 27 -16 -17 -28 -125 -15 -133 6 -4 8 -11
4 -16 -14 -23 -24 8 -24 77 0 55 4 80 16 91 18 19 15 58 -6 58 -7 0 -23 -17
-34 -37 -11 -21 -24 -34 -30 -31 -6 4 -5 -1 3 -10 7 -9 11 -23 8 -30 -5 -14 6
-130 23 -222 5 -33 11 -67 13 -75 1 -8 14 -35 29 -60 20 -34 27 -58 26 -93 0
-39 4 -52 26 -72 23 -21 26 -32 26 -87 0 -84 -39 -250 -61 -255 -9 -3 -22 -23
-29 -46 -8 -23 -16 -46 -19 -52 -3 -5 -4 -18 -2 -29 1 -11 -2 -16 -8 -12 -6 4
-11 3 -11 -2 0 -5 16 -17 35 -26 19 -9 35 -24 35 -32 0 -17 66 -48 81 -38 23
14 38 75 49 194 7 76 17 134 26 148 l15 23 21 -26 c13 -17 27 -25 39 -22 13 4
19 0 19 -12 0 -28 10 -31 42 -15 16 8 33 12 39 8 6 -3 16 2 23 12 8 10 20 15
30 11 11 -5 22 4 36 31 11 20 28 49 38 63 9 15 26 41 37 58 12 19 28 31 42 31
12 0 24 4 28 9 3 6 38 13 78 18 59 6 66 8 37 13 -29 4 -36 10 -38 31 l-3 27
138 5 c76 3 152 9 168 12 17 4 58 9 91 12 l62 5 -5 -26 c-7 -35 -11 -36 -65
-25 -39 9 -52 7 -82 -8 l-35 -18 161 -3 c89 -1 180 -7 202 -13 23 -6 61 -15
86 -20 53 -11 69 -24 52 -41 -10 -10 -19 -9 -43 5 -17 9 -62 20 -100 23 -66 7
-70 6 -76 -15 -5 -18 -12 -22 -41 -19 -29 2 -37 8 -42 28 -9 37 -36 37 -55 0
-11 -21 -21 -30 -31 -26 -9 3 -27 6 -40 6 -16 0 -24 6 -25 18 0 13 -3 12 -11
-5 -7 -14 -20 -23 -34 -23 -13 0 -26 -4 -29 -10 -10 -16 -38 -12 -31 5 3 8 1
15 -5 15 -5 0 -12 -7 -16 -16 -3 -8 -16 -20 -29 -25 -17 -6 -24 -16 -24 -34 0
-23 3 -25 49 -25 64 0 85 8 71 26 -17 20 6 56 33 52 17 -2 23 -12 27 -38 l5
-35 117 -14 118 -14 18 23 c14 18 24 21 38 15 18 -8 25 -11 49 -14 6 -1 -3 -8
-20 -15 l-30 -12 57 -28 c68 -33 72 -55 18 -104 -34 -31 -34 -32 -13 -38 26
-7 21 -24 -8 -24 -10 0 -19 -7 -19 -15 0 -8 6 -12 13 -9 8 3 13 -4 14 -17 1
-12 7 -25 14 -29 6 -4 8 -13 5 -19 -4 -6 -2 -11 3 -11 6 0 11 -4 11 -9 0 -5
-10 -9 -22 -9 -13 0 -59 -5 -103 -11 -135 -17 -181 -14 -223 13 -50 33 -186
66 -301 73 -78 5 -93 4 -89 -8 3 -9 21 -15 49 -17 39 -2 78 -10 241 -53 25 -6
43 -19 52 -37 11 -19 15 -22 16 -9 0 18 30 24 30 6 0 -8 14 -10 40 -6 25 3 45
1 53 -7 28 -27 142 -46 163 -27 9 9 37 15 61 12 16 -2 53 -68 53 -97 0 -41 14
-26 32 34 22 72 27 100 33 186 6 74 28 183 51 254 16 50 19 106 4 82 -5 -8
-11 -12 -14 -9 -8 8 5 49 15 49 5 0 6 12 3 26 -4 14 -2 35 3 47 6 12 17 38 26
57 l16 35 -6 -35 c-3 -19 -9 -40 -14 -45 -4 -6 -4 -16 0 -23 8 -14 18 3 57
102 13 33 24 70 24 83 0 13 4 31 9 41 15 27 51 145 46 150 -10 10 -56 -58 -76
-110 -21 -56 -47 -82 -36 -35 l6 22 -19 -23 c-17 -21 -23 -22 -52 -13 -18 5
-61 13 -94 17 -57 6 -62 5 -69 -15 -8 -27 -25 -27 -25 -1 0 18 -7 20 -74 20
-66 0 -75 -2 -81 -20 -3 -11 -11 -20 -16 -20 -5 0 -9 9 -9 20 0 18 -7 20 -57
20 -32 -1 -87 -9 -123 -18 -52 -14 -68 -23 -78 -45 -7 -15 -19 -27 -27 -27 -7
0 -16 -6 -18 -12 -4 -8 -6 -7 -6 4 -1 17 -91 45 -111 33 -18 -11 -11 21 10 48
19 23 69 129 136 287 28 68 83 139 107 140 9 0 17 4 17 9 0 5 16 26 35 47 56
63 52 65 -55 23z m-705 -350 c4 -5 1 -24 -5 -40 -10 -23 -15 -27 -26 -18 -17
14 -18 56 -1 62 19 8 25 8 32 -4z m149 -49 c29 -11 76 -50 76 -62 0 -27 -85
-129 -135 -163 -54 -35 -57 -36 -70 -18 -19 25 -19 28 10 59 28 30 35 80 10
70 -10 -4 -6 7 10 28 15 19 25 40 24 48 -3 28 2 37 24 41 12 2 23 5 24 6 1 0
13 -3 27 -9z m-132 -104 c2 -19 0 -32 -5 -29 -4 3 -11 -4 -14 -16 -3 -11 -9
-18 -14 -16 -4 3 -6 13 -3 23 11 34 26 72 29 72 2 0 5 -15 7 -34z m1300 -68
c-9 -9 -12 -7 -12 12 0 19 3 21 12 12 9 -9 9 -15 0 -24z m-367 12 c-4 -6 -16
-8 -26 -5 -16 5 -20 3 -17 -12 3 -15 -5 -18 -54 -21 -56 -3 -58 -2 -58 23 0
25 1 25 81 25 53 0 78 -4 74 -10z m-173 -25 c0 -5 -5 -11 -11 -13 -6 -2 -11 4
-11 13 0 9 5 15 11 13 6 -2 11 -8 11 -13z m-259 -2 c-13 -2 -33 -2 -45 0 -13
2 -3 4 22 4 25 0 35 -2 23 -4z m177 -13 c0 -11 -6 -20 -12 -20 -7 0 -23 -3
-35 -6 -18 -5 -23 -2 -23 14 0 20 15 28 53 31 11 1 17 -6 17 -19z m548 -3 c16
-19 3 -59 -17 -55 -21 4 -29 68 -8 68 8 0 19 -6 25 -13z m72 3 c0 -5 -4 -10
-10 -10 -5 0 -10 5 -10 10 0 6 5 10 10 10 6 0 10 -4 10 -10z m-99 -89 c31 -31
33 -39 21 -59 -7 -10 -18 -8 -50 9 -34 18 -42 28 -42 51 0 38 32 38 71 -1z
m-835 -18 c-11 -11 -19 6 -11 24 8 17 8 17 12 0 3 -10 2 -21 -1 -24z m-316 17
c0 -5 -5 -10 -11 -10 -5 0 -7 5 -4 10 3 6 8 10 11 10 2 0 4 -4 4 -10z"/>
<path d="M1105 3150 c3 -5 8 -10 11 -10 2 0 4 5 4 10 0 6 -5 10 -11 10 -5 0
-7 -4 -4 -10z"/>
<path d="M1581 3128 c-1 -9 -6 -18 -12 -20 -7 -2 -10 -11 -7 -18 3 -11 8 -9
17 8 7 13 10 28 7 35 -2 7 -5 5 -5 -5z"/>
<path d="M1120 3120 c0 -5 5 -10 11 -10 5 0 7 5 4 10 -3 6 -8 10 -11 10 -2 0
-4 -4 -4 -10z"/>
<path d="M1140 3090 c0 -5 5 -10 10 -10 6 0 10 5 10 10 0 6 -4 10 -10 10 -5 0
-10 -4 -10 -10z"/>
<path d="M1527 3062 c-10 -10 -17 -22 -17 -27 0 -5 9 1 21 14 12 12 19 24 17
27 -3 2 -12 -4 -21 -14z"/>
<path d="M1160 3065 c0 -10 84 -65 99 -65 9 0 2 7 -15 16 -18 8 -41 24 -52 35
-21 19 -32 24 -32 14z"/>
<path d="M5913 3043 c-25 -5 -30 -21 -10 -29 13 -5 87 22 87 31 0 6 -44 4 -77
-2z"/>
<path d="M1487 3033 c-4 -3 -7 -11 -7 -17 0 -6 5 -5 12 2 6 6 9 14 7 17 -3 3
-9 2 -12 -2z"/>
<path d="M5355 3031 c-7 -13 -3 -14 81 -30 72 -13 104 -14 104 -3 0 5 -33 14
-72 19 -40 6 -80 14 -89 18 -10 3 -20 2 -24 -4z"/>
<path d="M1320 3010 c0 -5 7 -10 16 -10 8 0 12 5 9 10 -3 6 -10 10 -16 10 -5
0 -9 -4 -9 -10z"/>
<path d="M1380 3009 c0 -7 9 -9 21 -6 12 3 18 3 14 -1 -11 -11 -116 -12 -110
-2 4 6 1 10 -5 10 -12 0 -44 -69 -36 -78 3 -3 6 0 6 7 0 7 5 9 11 5 7 -4 9 2
7 14 -2 12 0 21 5 22 58 3 87 -2 87 -15 0 -8 7 -15 16 -15 14 0 14 3 4 15 -10
12 -10 15 4 15 9 0 16 -4 16 -10 0 -5 4 -10 10 -10 11 0 9 28 -3 48 -10 15
-47 16 -47 1z"/>
<path d="M1450 3010 c0 -5 5 -10 10 -10 6 0 10 5 10 10 0 6 -4 10 -10 10 -5 0
-10 -4 -10 -10z"/>
<path d="M5145 2990 c-3 -5 3 -10 14 -10 12 0 21 5 21 10 0 6 -6 10 -14 10 -8
0 -18 -4 -21 -10z"/>
<path d="M1305 2960 c3 -5 10 -10 16 -10 5 0 9 5 9 10 0 6 -7 10 -16 10 -8 0
-12 -4 -9 -10z"/>
<path d="M1336 2945 c-9 -26 -7 -29 11 -14 19 16 23 16 34 -3 6 -10 11 -10 20
-1 6 6 19 9 28 6 9 -4 13 -2 8 3 -5 5 -21 9 -35 10 -15 0 -34 4 -43 8 -11 5
-19 1 -23 -9z"/>
<path d="M1300 2929 c0 -5 5 -7 10 -4 6 3 10 8 10 11 0 2 -4 4 -10 4 -5 0 -10
-5 -10 -11z"/>
<path d="M1446 2907 c3 -10 9 -15 12 -12 3 3 0 11 -7 18 -10 9 -11 8 -5 -6z"/>
<path d="M5124 2845 c-6 -24 0 -44 10 -34 11 11 17 59 7 59 -6 0 -13 -11 -17
-25z"/>
<path d="M4491 2614 c0 -11 3 -14 6 -6 3 7 2 16 -1 19 -3 4 -6 -2 -5 -13z"/>
<path d="M4510 2483 c0 -10 5 -49 11 -88 25 -174 20 -188 -52 -141 -48 32 -83
31 -87 -3 -4 -26 28 -138 63 -221 58 -138 91 -256 80 -290 -4 -12 -2 -20 4
-20 6 0 11 -5 11 -12 0 -6 -3 -8 -7 -5 -3 4 -12 -2 -20 -13 -8 -11 -21 -20
-30 -20 -20 0 -73 -38 -73 -53 0 -18 161 -100 172 -89 6 6 6 12 -1 16 -13 8
-15 56 -2 56 5 0 14 -6 20 -14 6 -8 23 -16 37 -19 25 -4 26 -3 20 32 -15 92
-19 201 -7 201 7 0 15 -9 18 -20 6 -24 5 -23 34 -7 13 6 24 21 24 32 0 17 7
20 52 21 33 2 59 8 69 18 8 9 21 16 27 16 7 0 44 13 82 29 39 15 91 30 116 33
25 3 66 13 91 22 39 15 47 23 58 59 7 23 16 44 20 47 4 3 10 23 14 45 l7 40
-20 -30 c-12 -16 -21 -34 -21 -40 0 -5 -8 -20 -18 -32 -13 -16 -43 -27 -117
-42 -70 -15 -134 -37 -215 -76 -105 -50 -118 -54 -150 -45 -19 6 -52 10 -72
10 l-38 0 1 135 c1 76 -3 140 -8 147 -6 7 -13 31 -17 53 -15 78 -24 121 -40
178 -9 32 -16 66 -16 77 0 10 -4 22 -10 25 -5 3 -10 -2 -10 -12z m37 -344 l3
-64 -20 24 c-21 24 -24 49 -14 89 12 42 27 17 31 -49z"/>
<path d="M4873 2484 c-17 -9 -39 -31 -48 -49 -8 -19 -20 -37 -25 -40 -6 -3
-10 -11 -10 -18 0 -6 14 4 31 23 25 29 28 30 15 8 -21 -36 -20 -55 3 -63 23
-7 17 -35 -8 -35 -14 -1 -14 -2 2 -14 21 -16 22 -26 3 -26 -23 0 -46 29 -47
58 -1 22 -2 23 -6 5 -2 -12 -14 -24 -28 -27 -13 -3 -27 -15 -30 -26 -3 -11
-11 -20 -16 -20 -5 0 -9 -4 -9 -10 0 -19 24 -10 46 18 l22 27 24 -21 c35 -33
62 -37 97 -16 48 29 102 105 108 152 5 33 11 44 32 51 56 20 57 21 43 26 -7 3
-26 -1 -43 -7 -25 -11 -32 -10 -48 4 -22 20 -66 20 -108 0z m101 -55 c-10 -4
-13 -8 -6 -8 7 -1 11 -5 8 -10 -4 -5 -17 -4 -31 2 -29 14 -34 31 -6 22 11 -3
22 -1 26 5 3 6 11 7 18 3 7 -4 4 -9 -9 -14z m-94 -19 c0 -5 -5 -10 -11 -10 -5
0 -7 5 -4 10 3 6 8 10 11 10 2 0 4 -4 4 -10z m90 -30 c0 -5 -5 -10 -11 -10 -5
0 -7 5 -4 10 3 6 8 10 11 10 2 0 4 -4 4 -10z m-22 -28 c9 -6 3 -16 -20 -38
-24 -23 -30 -25 -24 -9 5 11 9 27 11 35 2 8 4 16 4 18 2 4 16 2 29 -6z"/>
<path d="M5101 2472 c-8 -18 -11 -35 -8 -38 8 -9 29 35 25 54 -2 12 -8 7 -17
-16z"/>
<path d="M6037 2347 c-11 -29 -9 -43 4 -30 6 6 9 19 7 29 -3 18 -4 18 -11 1z"/>
<path d="M5010 2250 c0 -5 5 -10 10 -10 6 0 10 5 10 10 0 6 -4 10 -10 10 -5 0
-10 -4 -10 -10z"/>
<path d="M2498 2219 c-10 -5 -18 -21 -18 -35 0 -13 -7 -27 -15 -30 -16 -7 -21
-34 -5 -34 5 0 10 -26 12 -57 2 -46 7 -59 21 -61 15 -3 17 5 17 57 0 48 3 61
15 61 8 0 15 6 15 14 0 8 -7 16 -15 20 -22 8 -18 37 5 43 11 3 20 12 20 19 0
16 -27 18 -52 3z"/>
<path d="M696 2198 c-7 -21 -26 -155 -26 -177 0 -12 6 -21 14 -21 13 0 26 48
26 103 0 46 17 30 37 -35 15 -49 23 -63 38 -63 16 0 22 12 34 63 8 34 18 62
22 62 4 0 11 -28 16 -62 7 -55 11 -63 31 -66 19 -3 22 0 17 20 -3 13 -11 59
-18 103 -11 70 -15 80 -34 83 -19 3 -24 -5 -40 -58 -10 -34 -23 -61 -28 -61
-5 0 -18 27 -28 60 -14 48 -22 61 -38 61 -11 0 -21 -6 -23 -12z"/>
<path d="M2652 2108 c3 -87 6 -103 20 -106 13 -2 17 5 20 34 2 31 7 38 27 41
38 5 61 32 61 69 0 42 -30 64 -88 64 l-43 0 3 -102z m83 37 c0 -23 -5 -31 -22
-33 -20 -3 -23 1 -23 33 0 32 3 36 23 33 17 -2 22 -10 22 -33z"/>
<path d="M955 2135 c-54 -53 -20 -139 52 -133 50 4 54 26 6 30 -27 2 -39 8
-41 21 -3 14 4 17 42 17 47 0 51 4 40 46 -5 20 -41 44 -65 44 -5 0 -21 -11
-34 -25z m63 -28 c3 -12 -3 -17 -22 -17 -25 0 -35 18 -19 34 12 12 38 2 41
-17z"/>
<path d="M1112 2144 c-30 -21 -28 -49 8 -74 34 -24 31 -40 -6 -40 -15 0 -24
-6 -24 -15 0 -22 56 -19 80 5 29 29 24 47 -17 69 -28 15 -29 31 -3 38 25 7 27
33 2 33 -10 0 -28 -7 -40 -16z"/>
<path d="M1232 2144 c-31 -21 -29 -61 3 -76 14 -6 25 -17 25 -25 0 -7 -11 -13
-25 -13 -16 0 -25 -6 -25 -15 0 -20 54 -20 74 1 24 24 19 50 -14 74 -32 23
-32 40 1 40 10 0 19 7 19 15 0 19 -30 19 -58 -1z"/>
<path d="M1368 2150 c-9 -6 -22 -26 -28 -45 -21 -64 28 -118 94 -101 33 8 25
26 -13 26 -26 0 -51 16 -51 32 0 4 20 8 45 8 41 0 45 2 45 25 0 48 -51 78 -92
55z m56 -35 c6 -18 -16 -30 -39 -21 -20 7 -8 36 15 36 10 0 21 -7 24 -15z"/>
<path d="M1552 2144 c-12 -8 -22 -10 -22 -5 0 6 -7 11 -15 11 -12 0 -15 -15
-15 -75 0 -60 3 -75 15 -75 11 0 15 12 15 49 0 51 18 78 45 67 11 -4 15 -21
15 -61 0 -42 3 -55 15 -55 12 0 15 14 15 70 0 58 -3 71 -19 80 -25 13 -22 13
-49 -6z"/>
<path d="M1682 2145 c-20 -15 -22 -23 -19 -83 2 -37 -1 -75 -6 -84 -24 -38 41
-67 98 -44 28 12 35 20 35 43 0 38 -16 53 -57 53 -18 0 -33 5 -33 10 0 6 9 10
19 10 36 0 51 12 62 52 5 22 9 41 7 43 -2 1 -21 6 -43 9 -29 5 -46 2 -63 -9z
m63 -40 c0 -22 -31 -33 -47 -17 -17 17 -1 44 24 40 15 -2 23 -10 23 -23z m10
-115 c9 -15 -14 -40 -36 -40 -22 0 -33 16 -25 35 6 17 52 20 61 5z"/>
<path d="M1854 2148 c-23 -11 -44 -48 -44 -77 0 -10 9 -30 21 -45 20 -26 57
-34 93 -20 27 10 18 24 -17 24 -31 0 -57 14 -57 32 0 4 20 8 45 8 41 0 45 2
45 25 0 27 -32 65 -52 64 -7 0 -23 -5 -34 -11z m49 -32 c7 -17 -1 -26 -24 -26
-21 0 -33 15 -24 30 9 15 42 12 48 -4z"/>
<path d="M2028 2143 c-11 -10 -18 -13 -18 -5 0 7 -7 12 -15 12 -12 0 -15 -15
-15 -75 0 -60 3 -75 15 -75 11 0 15 12 15 45 0 32 6 51 21 66 11 11 19 27 17
35 -2 12 -6 12 -20 -3z"/>
<path d="M2114 2150 c-41 -17 -38 -71 6 -85 29 -9 25 -35 -5 -35 -16 0 -25 -6
-25 -15 0 -20 39 -19 68 1 31 21 28 52 -8 72 -34 19 -34 35 -1 40 12 2 20 9
18 15 -5 15 -26 18 -53 7z"/>
<path d="M2317 2140 c-48 -38 -43 -123 8 -136 37 -9 82 13 94 47 13 39 -4 88
-36 100 -33 12 -37 12 -66 -11z m69 -44 c3 -13 1 -34 -6 -46 -22 -41 -69 -6
-56 43 9 36 53 38 62 3z"/>
<path d="M2847 2153 c-20 -5 -47 -52 -47 -81 0 -33 38 -72 70 -72 16 0 35 3
44 6 27 10 18 24 -17 24 -31 0 -57 14 -57 32 0 4 20 8 45 8 41 0 45 2 45 25 0
27 -32 66 -52 64 -7 -1 -21 -3 -31 -6z m47 -38 c6 -18 -16 -30 -39 -21 -20 7
-8 36 15 36 10 0 21 -7 24 -15z"/>
<path d="M2988 2153 c-10 -2 -18 -11 -18 -19 0 -10 7 -13 25 -8 26 7 59 -11
49 -27 -3 -5 -15 -9 -28 -9 -28 0 -59 -32 -54 -56 5 -29 35 -41 60 -25 16 10
23 10 26 2 2 -6 10 -11 18 -11 11 0 14 15 14 63 0 34 -4 68 -8 74 -9 14 -58
24 -84 16z m62 -92 c0 -16 -30 -33 -46 -27 -13 5 -14 9 -4 21 13 16 50 21 50
6z"/>
<path d="M3157 2149 c-30 -18 -49 -73 -36 -106 13 -34 26 -43 62 -43 34 0 36
25 3 34 -14 3 -27 15 -31 26 -8 26 11 60 35 60 13 0 20 7 20 20 0 22 -24 26
-53 9z"/>
<path d="M3269 2141 c-19 -15 -24 -29 -24 -66 0 -56 22 -77 74 -73 49 4 52 26
4 30 -27 2 -39 8 -41 21 -3 14 4 17 42 17 41 0 46 2 46 23 0 54 -59 82 -101
48z m60 -24 c6 -8 8 -17 4 -20 -12 -12 -53 -7 -53 6 0 28 30 37 49 14z"/>
<path d="M5507 2013 c-10 -9 -8 -43 2 -43 5 0 14 7 21 15 17 21 -4 48 -23 28z"/>
<path d="M5556 1998 c-9 -34 -8 -38 9 -38 8 0 15 6 15 14 0 8 3 21 6 30 4 10
1 16 -9 16 -8 0 -17 -10 -21 -22z"/>
<path d="M6340 1997 c0 -7 6 -19 13 -26 10 -11 8 -12 -10 -6 -16 4 -23 2 -23
-7 0 -20 21 -38 43 -38 15 0 18 5 12 23 -3 12 -9 32 -12 45 -6 24 -23 31 -23
9z"/>
<path d="M6602 1961 c-11 -7 -10 -10 3 -15 23 -9 25 -8 25 9 0 17 -9 19 -28 6z"/>
<path d="M5590 1886 c0 -20 5 -36 10 -36 6 0 10 13 10 29 0 17 -4 33 -10 36
-6 4 -10 -8 -10 -29z"/>
<path d="M5802 1820 c0 -14 2 -19 5 -12 2 6 2 18 0 25 -3 6 -5 1 -5 -13z"/>
<path d="M6252 1777 c-17 -49 -26 -137 -14 -137 14 0 46 150 35 161 -5 5 -14
-4 -21 -24z"/>
<path d="M5927 1648 c-9 -31 -2 -33 11 -3 6 14 8 25 3 25 -5 0 -11 -10 -14
-22z"/>
<path d="M4720 1200 c0 -27 -3 -30 -34 -30 -42 0 -59 -20 -59 -70 0 -22 6 -46
13 -55 15 -18 51 -20 68 -3 9 9 12 9 12 0 0 -7 9 -12 20 -12 19 0 20 7 20 100
0 93 -1 100 -20 100 -16 0 -20 -7 -20 -30z m0 -96 c0 -44 -1 -45 -27 -42 -22
2 -29 9 -31 31 -4 33 13 57 39 57 16 0 19 -8 19 -46z"/>
<path d="M5960 1130 c0 -82 3 -100 15 -100 12 0 15 18 15 100 0 82 -3 100 -15
100 -12 0 -15 -18 -15 -100z"/>
<path d="M6040 1130 c0 -91 2 -100 19 -100 17 0 19 9 20 100 2 94 0 100 -19
100 -19 0 -20 -6 -20 -100z"/>
<path d="M6380 1130 c0 -93 1 -100 20 -100 18 0 20 7 20 55 0 41 4 57 16 62
24 9 36 -11 42 -66 3 -35 9 -51 19 -51 11 0 13 15 11 68 l-3 67 -42 -1 c-42
-1 -43 0 -43 33 0 26 -4 33 -20 33 -19 0 -20 -7 -20 -100z"/>
<path d="M6710 1130 c0 -93 1 -100 20 -100 19 0 20 7 20 100 0 93 -1 100 -20
100 -19 0 -20 -7 -20 -100z"/>
<path d="M6790 1130 c0 -93 1 -100 20 -100 19 0 20 7 20 100 0 93 -1 100 -20
100 -19 0 -20 -7 -20 -100z"/>
<path d="M4290 1125 l0 -95 45 0 c57 0 94 17 102 48 4 18 1 30 -14 42 -18 14
-18 18 -6 36 27 42 -2 64 -84 64 l-43 0 0 -95z m95 55 c9 -15 -14 -40 -36 -40
-14 0 -19 7 -19 25 0 20 5 25 24 25 14 0 28 -5 31 -10z m5 -75 c17 -20 -3 -45
-36 -45 -20 0 -24 5 -24 30 0 25 4 30 24 30 13 0 29 -7 36 -15z"/>
<path d="M5220 1125 c0 -88 1 -95 20 -95 16 0 20 7 20 35 0 32 3 35 28 35 41
0 72 26 72 60 0 39 -32 60 -92 60 l-48 0 0 -95z m95 35 c0 -20 -6 -26 -27 -28
-25 -3 -28 0 -28 28 0 28 3 31 28 28 21 -2 27 -8 27 -28z"/>
<path d="M6221 1199 c-35 -37 -32 -113 5 -146 35 -32 114 -30 114 3 0 10 -8
12 -29 8 -16 -3 -38 -1 -50 6 -19 9 -22 19 -19 58 2 38 8 49 27 58 16 8 32 9
48 3 21 -8 24 -6 21 8 -2 14 -15 19 -50 21 -37 2 -50 -1 -67 -19z"/>
<path d="M4470 1157 c0 -9 12 -11 40 -9 31 3 40 1 40 -11 0 -10 -14 -18 -40
-22 -44 -7 -58 -31 -40 -65 12 -22 49 -27 68 -8 9 9 12 9 12 0 0 -7 9 -12 20
-12 18 0 20 7 20 58 0 32 -5 63 -12 70 -17 17 -108 16 -108 -1z m80 -77 c0
-24 -26 -38 -42 -22 -16 16 -2 42 22 42 13 0 20 -7 20 -20z"/>
<path d="M4817 1152 c-24 -27 -21 -77 5 -102 30 -27 101 -25 106 3 3 16 1 17
-18 7 -27 -14 -70 1 -70 25 0 11 12 15 49 15 46 0 49 1 44 23 -3 12 -10 28
-16 35 -15 19 -81 15 -100 -6z m81 -19 c2 -9 -7 -13 -27 -13 -21 0 -31 5 -31
16 0 19 51 16 58 -3z"/>
<path d="M4960 1099 c0 -62 2 -69 20 -69 18 0 20 7 20 55 0 41 4 57 16 62 24
9 36 -11 42 -66 3 -34 9 -51 18 -51 10 0 14 15 14 58 0 31 -4 62 -8 69 -4 7
-31 11 -65 11 l-57 -1 0 -68z"/>
<path d="M5400 1155 c-19 -23 -16 -81 5 -105 23 -25 76 -27 98 -2 20 22 23 92
5 110 -17 17 -93 15 -108 -3z m86 -31 c8 -30 -10 -74 -29 -74 -31 0 -47 43
-31 84 10 27 53 20 60 -10z"/>
<path d="M5556 1144 c22 -89 32 -109 52 -112 18 -3 23 4 33 42 6 25 15 46 19
46 4 0 13 -20 19 -45 8 -34 16 -45 30 -45 15 0 23 13 35 55 9 30 19 61 22 70
4 10 0 15 -14 15 -16 0 -22 -9 -27 -40 -9 -56 -20 -57 -35 -5 -17 61 -43 61
-60 0 -13 -48 -30 -60 -30 -22 0 42 -12 67 -31 67 -16 0 -18 -5 -13 -26z"/>
<path d="M5807 1152 c-24 -27 -21 -77 5 -102 29 -26 101 -25 106 2 3 15 -1 15
-27 5 -23 -8 -33 -8 -45 2 -31 26 -19 41 33 41 46 0 49 1 44 23 -3 12 -10 28
-16 35 -15 19 -81 15 -100 -6z m81 -19 c2 -9 -7 -13 -27 -13 -21 0 -31 5 -31
16 0 19 51 16 58 -3z"/>
<path d="M6550 1160 c0 -5 18 -10 40 -10 54 0 55 -26 0 -35 -44 -7 -58 -31
-40 -65 12 -22 49 -27 68 -8 9 9 12 9 12 0 0 -7 9 -12 20 -12 18 0 20 7 20 58
0 32 -5 63 -12 70 -14 14 -108 16 -108 2z m80 -80 c0 -24 -26 -38 -42 -22 -16
16 -2 42 22 42 13 0 20 -7 20 -20z"/>
<path d="M6875 1135 c-25 -57 7 -105 69 -105 35 0 56 10 56 26 0 11 -5 11 -25
2 -30 -13 -75 3 -75 27 0 11 12 15 50 15 53 0 61 10 40 51 -8 14 -21 19 -56
19 -42 0 -46 -2 -59 -35z m85 -1 c0 -9 -11 -14 -30 -14 -33 0 -39 14 -13 28
21 12 43 5 43 -14z"/>
<path d="M7040 1099 c0 -55 3 -69 15 -69 11 0 15 13 15 54 0 47 3 56 21 61 28
9 39 -9 39 -67 0 -41 3 -48 20 -48 17 0 20 6 19 43 -2 84 -8 92 -72 93 l-57 1
0 -68z"/>
<path d="M7214 1145 c-23 -36 -12 -93 21 -101 13 -3 33 -3 44 1 15 4 21 2 21
-9 0 -20 -36 -39 -60 -31 -14 4 -20 2 -20 -9 0 -12 10 -16 36 -16 67 0 74 10
74 105 l0 85 -50 0 c-42 0 -52 -4 -66 -25z m86 -34 c0 -42 -21 -61 -46 -40
-29 24 -13 79 22 79 21 0 24 -5 24 -39z"/>
<path d="M7387 1152 c-24 -27 -21 -77 5 -102 30 -27 101 -25 106 3 3 16 1 17
-18 7 -27 -14 -70 1 -70 25 0 11 12 15 49 15 46 0 49 1 44 23 -3 12 -10 28
-16 35 -15 19 -81 15 -100 -6z m81 -19 c2 -9 -7 -13 -27 -13 -21 0 -31 5 -31
16 0 19 51 16 58 -3z"/>
<path d="M0 375 l0 -375 4005 0 4005 0 0 375 0 375 -4005 0 -4005 0 0 -375z
m1293 223 c48 -25 98 -101 96 -145 0 -10 -5 -2 -11 17 -31 111 -144 161 -223
98 -29 -23 -64 -87 -66 -120 -1 -17 -2 -19 -6 -5 -11 44 46 135 98 156 33 13
86 13 112 -1z m-13 -109 c0 -27 2 -28 21 -17 18 11 23 10 40 -11 23 -28 24
-45 3 -66 -15 -14 -17 -14 -29 1 -6 9 -17 14 -23 10 -15 -9 -16 -66 -1 -66 6
0 9 -6 6 -12 -2 -7 -9 -12 -15 -11 -6 2 -16 -6 -22 -17 -14 -26 -36 -26 -50 0
-6 11 -16 19 -22 17 -6 -1 -13 4 -15 11 -3 6 0 12 6 12 15 0 14 57 -1 66 -6 4
-16 0 -23 -9 -13 -18 -30 -10 -39 19 -4 14 0 29 13 45 17 21 22 22 40 11 19
-11 21 -10 21 17 0 15 10 41 22 56 l22 28 23 -27 c13 -15 23 -40 23 -57z m343
42 c16 -16 -4 -32 -32 -26 -20 4 -32 1 -42 -11 -12 -15 -10 -19 16 -38 80 -58
95 -97 50 -141 -26 -27 -72 -33 -105 -15 -33 17 -13 39 33 37 36 -2 42 1 45
19 2 15 -7 29 -30 44 -18 13 -39 30 -45 38 -38 46 12 120 72 108 16 -4 33 -10
38 -15z m191 9 c36 -13 24 -43 -13 -35 -34 7 -76 -24 -84 -61 -7 -38 11 -92
35 -105 11 -6 34 -8 50 -5 21 4 30 1 35 -10 8 -21 -14 -34 -57 -34 -88 0 -138
104 -94 196 26 54 75 75 128 54z m200 -4 c78 -33 88 -179 15 -230 -27 -18 -81
-21 -111 -5 -32 17 -61 93 -53 139 10 60 55 107 103 109 7 1 27 -5 46 -13z
m630 4 c35 -13 24 -43 -13 -36 -58 13 -67 -41 -10 -64 35 -15 49 -37 49 -79 0
-56 -49 -83 -118 -65 -39 11 -23 39 22 39 26 0 42 6 50 18 12 19 9 23 -59 70
-19 14 -25 27 -25 57 0 59 43 84 104 60z m-484 -89 c0 -94 11 -121 49 -121 32
0 42 26 44 117 2 84 3 88 25 91 l24 4 -4 -100 c-3 -90 -6 -103 -27 -126 -30
-32 -87 -35 -122 -7 -22 18 -24 28 -27 125 -4 102 -3 106 17 106 20 0 21 -5
21 -89z m348 72 c-2 -12 -14 -19 -36 -21 l-32 -3 0 -105 c0 -97 -1 -104 -20
-104 -19 0 -20 7 -20 105 l0 105 -29 0 c-31 0 -47 13 -36 30 3 6 44 10 91 10
76 0 85 -2 82 -17z m-1108 -103 c0 -5 -4 -10 -10 -10 -5 0 -10 5 -10 10 0 6 5
10 10 10 6 0 10 -4 10 -10z m-310 -30 c0 -16 -2 -30 -4 -30 -2 0 -6 14 -8 30
-3 17 -1 30 4 30 4 0 8 -13 8 -30z m295 -36 c-14 -48 -55 -99 -85 -109 -18 -6
-20 -41 -4 -67 6 -11 5 -11 -8 0 -23 18 -92 20 -113 2 -17 -14 -17 -14 0 20
14 28 15 35 4 38 -23 8 -89 82 -89 100 0 11 6 7 19 -13 41 -66 56 -75 126 -73
57 1 68 5 95 31 17 17 36 50 43 74 6 23 14 43 19 43 4 0 1 -21 -7 -46z m507
-135 c-30 -11 -26 -39 8 -52 12 -4 12 -6 -2 -6 -15 -1 -38 26 -38 43 0 12 33
35 43 29 6 -4 2 -9 -11 -14z m740 -9 c3 -16 1 -35 -4 -42 -4 -8 -8 4 -8 30 0
49 6 55 12 12z m-343 -2 c5 -14 10 -17 15 -10 10 17 26 15 26 -3 0 -8 -6 -15
-12 -15 -9 0 -8 -4 2 -10 13 -8 12 -10 -2 -10 -10 0 -18 6 -19 13 0 10 -2 10
-6 0 -11 -28 -33 -13 -33 22 0 39 16 47 29 13z m202 -8 c5 0 9 -7 9 -15 0 -15
-20 -22 -20 -7 0 4 -2 16 -4 27 -2 11 -1 14 1 8 3 -7 9 -13 14 -13z m29 2 c1
-12 5 -10 15 8 17 30 19 24 4 -19 l-11 -32 -14 27 c-16 31 -18 48 -4 39 6 -3
10 -14 10 -23z m150 -7 c0 -24 -5 -35 -15 -35 -8 0 -15 5 -15 11 0 5 5 7 10 4
6 -3 10 1 10 10 0 9 -4 13 -10 10 -14 -9 -12 3 3 20 17 20 17 19 17 -20z
m-621 -2 c0 -25 -1 -25 -8 -8 -5 11 -7 23 -4 28 8 14 13 7 12 -20z m320 -7
c-1 -30 -1 -30 -8 -6 l-8 25 -5 -25 c-5 -23 -5 -22 -7 6 -1 21 4 31 14 31 10
0 15 -10 14 -31z m-438 -7 c-9 -22 -10 -22 -10 -3 -1 11 2 24 6 27 12 12 14 0
4 -24z m65 22 c17 14 34 3 34 -22 0 -12 -7 -19 -20 -19 -11 0 -20 5 -20 10 0
6 -8 10 -17 10 -15 0 -16 -2 -3 -10 13 -8 12 -10 -2 -10 -11 0 -18 7 -18 18 0
24 11 35 24 22 6 -6 14 -6 22 1z m121 -13 c20 -19 23 -19 23 -4 0 9 -4 14 -10
11 -5 -3 -10 -1 -10 5 0 26 25 1 28 -28 3 -25 0 -32 -15 -32 -15 0 -16 2 -3
10 13 9 13 10 0 11 -8 1 -18 1 -22 0 -5 0 -8 8 -8 20 0 11 -4 17 -10 14 -5 -3
-10 -1 -10 4 0 17 11 13 37 -11z m103 -3 c0 -15 -6 -25 -14 -25 -16 0 -25 19
-18 38 8 22 32 13 32 -13z m181 -2 c-11 -5 -11 -7 0 -14 11 -7 10 -9 -3 -9
-11 0 -18 7 -18 18 0 25 11 35 24 21 8 -8 7 -13 -3 -16z m31 2 c-2 -14 -6 -25
-8 -25 -2 0 -4 11 -4 25 0 14 4 25 9 25 4 0 6 -11 3 -25z m168 18 c10 10 12 9
6 -6 -3 -10 -6 -22 -6 -26 0 -3 -11 -8 -25 -9 -14 -1 -25 3 -25 8 0 5 7 7 16
3 12 -4 15 -2 12 8 -3 8 -11 13 -17 11 -7 -1 -10 2 -6 8 5 8 11 8 19 1 9 -7
17 -7 26 2z m-533 -25 c-3 -8 -6 -5 -6 6 -1 11 2 17 5 13 3 -3 4 -12 1 -19z"/>
<path d="M1219 379 c-10 -6 -4 -9 19 -9 17 0 32 2 32 4 0 9 -39 13 -51 5z"/>
<path d="M1935 485 c-48 -47 -23 -155 35 -155 37 0 60 35 60 90 0 37 -5 55
-20 70 -26 26 -46 25 -75 -5z"/>
<path d="M2000 186 c0 -9 5 -16 10 -16 6 0 10 4 10 9 0 6 -4 13 -10 16 -5 3
-10 -1 -10 -9z"/>
<path d="M2195 191 c-3 -5 -1 -12 5 -16 5 -3 10 1 10 9 0 18 -6 21 -15 7z"/>
</g>
</svg>
